<?xml version="1.0" standalone="no"?>
<!DOCTYPE svg PUBLIC "-//W3C//DTD SVG 20010904//EN"
 "http://www.w3.org/TR/2001/REC-SVG-20010904/DTD/svg10.dtd">
<svg version="1.0" xmlns="http://www.w3.org/2000/svg"
 width="500.000000pt" height="500.000000pt" viewBox="0 0 500.000000 500.000000"
 preserveAspectRatio="xMidYMid meet">
<metadata>
Created by potrace 1.14, written by Peter Selinger 2001-2017
</metadata>
<g transform="translate(0.000000,500.000000) scale(0.100000,-0.100000)"
fill="#000000" stroke="none">
<path d="M2207 4954 c-6 -7 -62 -15 -100 -15 -9 0 -16 -3 -13 -7 2 -4 -17 -8
-42 -9 -66 -4 -72 -5 -72 -17 0 -6 -5 -4 -10 4 -7 10 -10 11 -10 2 0 -8 -9
-11 -25 -8 -14 3 -25 0 -25 -5 0 -6 -4 -7 -10 -4 -5 3 -10 2 -10 -2 0 -5 -11
-10 -25 -11 -46 -3 -55 -5 -55 -13 0 -3 -12 -9 -27 -12 -16 -3 -37 -7 -48 -10
-11 -3 -27 -7 -35 -9 -8 -1 -17 -5 -20 -8 -3 -3 -23 -11 -45 -19 -22 -8 -51
-18 -65 -24 -14 -6 -31 -11 -39 -13 -8 -1 -17 -8 -21 -15 -4 -6 -13 -8 -19 -5
-6 4 -11 2 -11 -3 0 -6 -3 -11 -7 -10 -16 2 -53 -14 -53 -22 0 -5 -9 -9 -20
-9 -11 0 -20 -3 -20 -7 0 -9 -49 -33 -67 -33 -7 0 -13 -3 -13 -8 0 -4 -9 -13
-21 -20 -17 -11 -20 -11 -14 0 3 7 0 5 -8 -4 -8 -10 -19 -18 -26 -18 -6 0 -11
-5 -11 -11 0 -5 -5 -7 -10 -4 -6 3 -10 1 -10 -5 0 -6 -4 -9 -9 -6 -5 3 -11 -1
-15 -9 -3 -8 -12 -15 -19 -15 -8 0 -22 -9 -32 -20 -10 -12 -25 -18 -32 -16 -7
3 -13 -1 -13 -9 0 -8 -5 -15 -11 -15 -7 0 -20 -10 -30 -22 -11 -11 -19 -17
-19 -12 0 5 -7 0 -15 -10 -8 -11 -15 -17 -15 -14 0 3 -14 -7 -31 -23 -17 -16
-38 -29 -46 -29 -8 0 -12 -4 -8 -9 3 -6 -3 -15 -13 -20 -11 -6 -43 -33 -72
-61 -28 -27 -56 -50 -61 -50 -5 0 -8 -3 -6 -7 1 -5 -1 -8 -5 -8 -3 0 -17 -13
-29 -30 -13 -16 -35 -42 -49 -57 -14 -15 -42 -45 -63 -67 -21 -23 -35 -41 -31
-41 4 0 -5 -11 -20 -25 -14 -13 -26 -27 -26 -31 0 -4 -16 -26 -35 -50 -19 -23
-35 -47 -35 -53 0 -6 -4 -11 -10 -11 -5 0 -10 -7 -10 -15 0 -8 -4 -15 -9 -15
-5 0 -14 -13 -21 -30 -7 -16 -16 -30 -21 -30 -5 0 -9 -7 -9 -15 0 -8 -5 -15
-12 -15 -6 0 -8 -3 -5 -6 4 -4 -1 -19 -11 -33 -10 -14 -24 -39 -32 -56 -8 -16
-19 -33 -25 -37 -5 -4 -6 -8 -2 -8 5 0 1 -7 -7 -16 -9 -8 -14 -20 -11 -25 4
-5 1 -9 -4 -9 -6 0 -11 -9 -11 -20 0 -11 -5 -20 -11 -20 -5 0 -8 -4 -4 -9 3
-5 1 -12 -5 -16 -6 -4 -8 -11 -5 -16 4 -5 1 -9 -5 -9 -6 0 -9 -4 -6 -9 3 -5
-1 -12 -10 -15 -8 -3 -13 -10 -10 -15 3 -5 -1 -25 -9 -45 -8 -20 -13 -36 -9
-36 3 0 -2 -7 -11 -16 -9 -10 -14 -25 -12 -35 3 -11 1 -19 -4 -19 -5 0 -9 -7
-9 -15 0 -8 -6 -15 -12 -15 -9 0 -8 -4 2 -10 8 -5 10 -10 5 -10 -6 0 -11 -10
-12 -22 -1 -11 -6 -24 -10 -27 -5 -3 -9 -17 -8 -31 0 -14 -5 -30 -11 -37 -6
-6 -11 -24 -10 -40 1 -15 -6 -33 -14 -40 -12 -10 -12 -12 -1 -13 9 0 10 -4 4
-12 -5 -7 -10 -24 -11 -37 0 -13 -7 -28 -14 -32 -7 -5 -8 -9 -2 -9 9 0 11 -31
4 -50 -1 -3 -2 -8 -1 -12 0 -5 -2 -8 -7 -8 -4 0 -7 -16 -6 -35 1 -21 -3 -35
-10 -35 -7 0 -6 -4 3 -9 7 -5 9 -11 4 -14 -5 -3 -10 -45 -12 -94 -1 -54 -7
-90 -14 -95 -9 -6 -9 -8 1 -8 6 0 12 -5 12 -11 0 -5 -6 -7 -12 -3 -11 6 -11 4
0 -7 16 -17 16 -32 0 -23 -10 6 -10 4 -3 -7 12 -17 13 -39 1 -58 -6 -9 -5 -12
2 -7 12 7 11 -32 -1 -51 -4 -6 -3 -14 2 -17 4 -3 9 -34 10 -68 2 -73 4 -89 14
-105 4 -6 1 -14 -5 -16 -9 -4 -10 -8 -2 -14 6 -4 11 -15 12 -23 3 -70 6 -89
12 -85 4 2 7 -2 7 -10 0 -8 -5 -11 -10 -8 -6 4 -7 1 -2 -7 5 -7 12 -30 16 -49
4 -20 10 -47 13 -61 3 -14 7 -37 8 -53 1 -15 6 -27 10 -27 4 0 8 -13 8 -29 0
-16 6 -32 13 -34 9 -4 9 -8 -1 -15 -11 -7 -11 -10 3 -15 9 -4 15 -12 14 -19
-1 -7 1 -22 5 -33 4 -11 12 -31 16 -45 4 -14 12 -34 16 -45 4 -11 6 -24 5 -28
-1 -4 6 -15 14 -23 8 -9 13 -20 10 -25 -4 -5 -1 -9 5 -9 7 0 10 -7 6 -15 -3
-8 -1 -15 4 -15 6 0 9 -3 8 -7 -1 -5 8 -28 20 -52 12 -25 22 -50 22 -57 0 -7
4 -14 8 -16 4 -2 20 -28 35 -58 33 -68 58 -110 74 -128 7 -7 20 -28 29 -47 9
-19 20 -35 25 -35 5 0 9 -7 9 -15 0 -8 5 -15 10 -15 6 0 10 -7 10 -15 0 -8 3
-15 8 -15 4 0 18 -18 32 -40 14 -22 28 -40 32 -40 5 0 8 -6 8 -13 0 -7 9 -18
20 -25 11 -7 20 -16 20 -22 0 -8 34 -49 71 -85 5 -5 18 -19 27 -29 9 -10 29
-31 45 -46 15 -15 27 -33 27 -41 0 -11 2 -11 10 1 8 13 10 12 10 -2 0 -10 3
-18 8 -18 4 0 35 -27 70 -59 34 -33 62 -57 62 -54 0 4 8 -3 17 -13 10 -11 35
-30 55 -44 21 -14 38 -28 38 -32 0 -5 7 -8 15 -8 7 0 18 -6 22 -13 4 -7 26
-24 48 -37 22 -13 42 -27 45 -32 3 -4 37 -24 75 -44 39 -20 82 -45 98 -56 15
-11 27 -16 27 -12 0 4 8 -1 19 -10 10 -9 25 -16 32 -14 8 2 13 -3 12 -9 -2 -8
7 -13 22 -13 14 0 25 -3 25 -8 0 -7 63 -32 88 -34 6 -1 12 -5 12 -10 0 -4 9
-8 20 -8 11 0 20 -4 20 -10 0 -5 5 -10 11 -10 5 0 8 4 5 8 -2 4 21 -5 52 -20
62 -30 77 -34 66 -17 -3 6 5 4 18 -5 14 -9 28 -13 31 -9 4 3 7 1 7 -6 0 -7 4
-10 9 -6 5 3 13 0 16 -6 4 -5 13 -8 21 -5 8 3 14 1 14 -4 0 -5 7 -7 15 -4 8 4
21 2 28 -4 6 -5 20 -8 30 -7 9 2 17 0 17 -5 0 -4 11 -8 25 -9 46 -3 55 -4 55
-10 0 -3 24 -6 54 -6 30 0 52 -3 50 -6 -6 -10 17 -16 58 -13 26 1 36 -2 31
-10 -4 -7 -1 -6 9 1 8 7 18 10 22 6 11 -11 418 -15 411 -4 -3 6 7 6 27 0 40
-11 40 -11 34 -1 -3 4 8 7 23 6 16 -1 34 2 41 6 7 4 26 4 42 0 16 -5 26 -5 23
0 -3 5 3 9 12 9 10 0 34 2 53 6 19 4 45 7 58 8 12 1 22 4 22 7 0 3 8 6 18 7 9
1 31 4 47 8 17 3 35 7 42 9 7 1 15 5 19 8 3 4 12 4 20 1 8 -3 14 0 14 6 0 6 7
8 15 5 8 -4 15 -2 15 4 0 6 12 9 26 7 14 -1 28 3 30 10 3 6 15 11 27 10 12 -1
33 4 47 11 14 6 44 21 68 33 24 12 40 15 37 8 -4 -7 -1 -5 7 3 7 9 21 14 31
12 9 -2 17 1 17 6 0 5 18 15 41 22 23 8 44 20 46 28 5 11 7 11 14 0 5 -7 9 -8
9 -2 0 6 23 21 50 34 28 13 50 27 50 32 0 5 6 8 13 7 24 -3 38 1 33 9 -3 5 13
16 34 26 22 10 40 22 40 27 0 6 4 8 9 4 5 -3 21 6 35 20 14 14 26 23 26 20 0
-7 67 42 93 67 10 10 22 16 27 13 5 -3 11 4 15 15 4 11 11 18 16 15 5 -4 9 -1
9 4 0 6 4 11 9 11 9 0 55 40 128 110 17 16 36 30 43 30 6 0 8 5 5 10 -3 6 2
10 11 10 10 0 15 3 11 6 -8 8 16 33 26 27 4 -2 7 2 7 9 0 8 9 20 20 28 11 8
20 20 20 27 0 7 3 12 8 10 4 -1 7 0 7 3 1 3 14 19 30 36 67 71 85 93 85 103 0
6 3 11 8 11 4 0 18 17 32 38 14 20 29 42 35 48 20 23 38 52 36 59 -1 3 6 14
16 23 10 9 19 24 21 32 2 8 7 17 11 20 11 7 36 54 33 63 -1 4 2 7 7 7 5 0 14
14 21 30 7 17 17 30 22 30 5 0 7 4 3 9 -3 5 2 17 11 25 8 9 12 16 8 16 -3 0
-1 6 5 13 6 8 8 17 4 20 -3 4 -1 7 5 7 6 0 13 13 17 30 4 16 11 32 16 35 5 4
9 15 9 26 0 10 5 19 10 19 6 0 10 7 10 15 0 9 9 34 19 56 11 21 14 36 8 32 -7
-3 -3 4 8 16 11 13 19 25 18 27 -7 11 -2 34 6 30 5 -4 7 2 4 13 -3 10 0 22 6
25 5 4 8 13 4 21 -3 8 -1 15 5 15 6 0 9 8 7 18 -1 9 1 22 5 27 5 6 11 28 14
50 4 21 10 42 14 45 6 5 10 28 13 87 1 13 5 21 8 18 4 -2 7 6 8 18 0 12 3 45
7 72 4 28 7 57 8 65 0 8 5 21 11 28 5 6 6 12 1 12 -5 0 -8 15 -7 32 1 18 2 33
3 33 7 0 6 36 -1 41 -6 4 -6 11 1 19 7 8 9 19 5 25 -3 5 -1 10 6 10 10 0 10 3
1 12 -7 7 -8 17 -1 30 7 13 6 18 -3 18 -9 0 -9 3 2 10 13 9 13 10 0 10 -13 0
-13 1 0 10 13 9 13 10 0 10 -13 0 -13 1 0 10 13 9 13 10 0 10 -13 0 -13 1 0
10 13 9 13 10 0 10 -13 0 -13 1 0 10 13 9 13 10 0 10 -13 0 -13 1 0 10 13 9
13 10 0 10 -13 0 -13 1 0 10 13 9 13 10 0 10 -13 0 -13 1 0 10 9 6 11 10 3 10
-7 0 -10 7 -6 17 5 12 3 14 -7 8 -10 -6 -11 -4 -4 6 12 19 12 33 -1 41 -6 5
-5 8 3 8 9 0 10 5 3 18 -7 13 -6 23 1 30 8 8 8 12 1 12 -6 0 -10 12 -10 28 1
15 -4 37 -11 49 -8 14 -9 24 -2 28 6 4 8 10 5 15 -4 7 -15 67 -17 98 -1 6 -4
12 -7 12 -3 0 -7 15 -8 33 -6 69 -7 77 -15 77 -4 0 -8 14 -8 30 0 17 -4 30 -8
30 -4 0 -9 11 -10 26 -1 14 -6 33 -12 43 -5 10 -6 21 -3 25 3 3 1 6 -5 6 -6 0
-9 7 -5 16 3 9 1 19 -5 23 -6 4 -13 16 -15 26 -2 11 -7 29 -11 40 -5 11 -12
32 -18 47 -6 15 -9 30 -8 34 1 4 -2 10 -7 13 -4 3 -14 17 -21 30 -11 19 -11
22 0 16 7 -3 6 -1 -3 7 -9 7 -15 21 -13 31 1 9 -2 15 -7 11 -5 -3 -9 2 -9 10
0 9 -5 16 -12 16 -6 0 -8 3 -5 6 3 4 1 16 -5 28 -7 11 -12 24 -13 28 0 4 -8
17 -17 28 -10 11 -18 25 -18 32 0 6 -7 19 -16 29 -8 9 -17 26 -19 36 -1 10 -8
17 -14 15 -6 -1 -11 5 -11 13 0 15 -68 117 -82 123 -5 2 -6 8 -2 13 3 5 0 9
-7 9 -7 0 -10 3 -6 6 3 3 -4 16 -16 29 -32 33 -62 77 -59 87 1 4 -5 8 -13 8
-9 0 -19 8 -22 17 -4 10 -25 36 -47 57 -23 22 -41 43 -41 46 0 3 -3 4 -7 2 -5
-1 -8 2 -8 7 0 12 -99 111 -111 111 -5 0 -9 7 -9 15 0 8 -5 15 -12 15 -6 0
-24 12 -39 26 -15 14 -39 36 -54 50 -14 13 -30 24 -35 24 -6 0 -10 5 -10 10 0
6 -7 10 -16 10 -8 0 -12 5 -9 10 3 6 -1 10 -9 10 -9 0 -16 5 -16 10 0 6 -4 10
-10 10 -5 0 -21 10 -36 23 -14 12 -29 22 -33 22 -4 0 -15 8 -25 18 -10 9 -21
17 -25 17 -4 0 -17 9 -29 20 -12 12 -22 18 -22 15 0 -3 -18 6 -40 20 -22 14
-44 25 -50 25 -5 0 -10 3 -10 8 0 7 -75 45 -92 46 -4 1 -13 7 -19 14 -7 6 -21
12 -31 12 -10 0 -18 5 -18 10 0 6 -6 10 -14 10 -8 0 -27 7 -43 14 -15 8 -37
18 -48 22 -25 9 -23 8 -65 25 -19 7 -38 12 -42 11 -5 -1 -8 2 -8 6 0 5 -7 9
-15 10 -8 1 -22 3 -30 4 -8 1 -15 5 -15 10 0 4 -3 7 -7 7 -20 -4 -93 15 -93
24 0 6 -3 8 -6 5 -3 -4 -20 -2 -37 4 -18 5 -46 11 -64 12 -18 2 -40 9 -50 17
-15 12 -16 12 -8 -1 7 -12 6 -13 -6 -4 -12 9 -39 14 -96 17 -7 0 -13 5 -13 11
0 6 -5 4 -10 -4 -5 -8 -10 -10 -10 -5 0 6 -16 11 -35 12 -19 0 -46 4 -60 7
-20 5 -25 4 -19 -6 6 -10 5 -10 -7 -2 -21 17 -434 20 -423 3 5 -9 3 -9 -7 -3
-19 12 -69 11 -69 -1 0 -5 -4 -4 -8 3 -5 7 -11 9 -15 6z m231 -172 c9 9 12 9
12 1 0 -11 30 -10 49 1 5 4 11 1 13 -5 3 -9 10 -9 27 1 19 10 22 10 16 -1 -6
-9 -3 -10 11 -4 10 4 28 7 39 5 11 -1 44 -3 72 -4 29 0 53 -5 53 -9 0 -5 5 -5
11 -1 6 3 15 0 20 -7 7 -12 9 -12 9 0 0 11 3 11 17 0 15 -12 16 -12 8 1 -8 13
-7 13 8 1 9 -7 17 -11 17 -9 0 3 18 2 39 -2 25 -4 44 -3 51 4 8 8 10 7 5 -4
-4 -13 4 -16 42 -18 25 -1 49 -6 52 -10 6 -9 22 -12 73 -13 15 -1 25 -5 22
-10 -3 -5 6 -9 19 -9 13 0 27 -3 31 -7 6 -7 24 -11 59 -15 9 -1 17 -5 17 -9 0
-6 58 -23 73 -20 4 0 7 -4 7 -9 0 -6 6 -10 13 -9 16 3 97 -33 97 -44 0 -4 5
-5 10 -2 6 3 10 0 10 -7 0 -10 2 -10 8 0 6 9 13 7 30 -8 12 -11 23 -20 24 -19
8 5 48 -14 48 -22 0 -5 9 -9 20 -9 11 0 20 -4 20 -8 0 -5 16 -14 35 -22 19 -8
35 -17 35 -22 0 -4 7 -8 15 -8 8 0 15 -4 15 -10 0 -5 7 -10 15 -10 8 0 15 -4
15 -10 0 -5 3 -9 8 -8 15 3 42 -15 35 -25 -3 -5 -2 -7 4 -4 5 4 20 -3 31 -14
12 -11 22 -16 22 -12 0 4 4 3 8 -3 4 -5 25 -23 47 -40 61 -45 77 -58 94 -76 8
-10 21 -18 28 -18 7 0 13 -7 13 -15 0 -8 5 -15 11 -15 17 0 249 -242 249 -260
0 -6 5 -10 10 -10 6 0 10 -7 10 -15 0 -8 7 -15 16 -15 8 0 13 -4 10 -9 -4 -5
-3 -11 1 -13 15 -6 62 -76 56 -82 -4 -3 1 -6 11 -6 9 0 15 -4 11 -9 -3 -6 2
-14 11 -19 9 -5 16 -13 16 -18 1 -21 22 -53 31 -47 6 3 7 1 4 -4 -4 -6 2 -22
13 -36 11 -14 20 -30 20 -36 0 -6 5 -11 11 -11 6 0 9 -7 5 -15 -3 -8 0 -15 6
-15 6 0 9 -3 5 -6 -5 -6 0 -14 29 -47 6 -7 9 -18 6 -25 -2 -6 1 -12 7 -12 6 0
11 -12 11 -26 0 -14 4 -23 10 -19 6 3 10 -2 10 -12 0 -11 6 -25 13 -32 10 -11
9 -12 -3 -6 -8 5 -4 -4 10 -20 14 -16 18 -24 10 -20 -11 6 -10 3 3 -12 9 -11
14 -22 11 -25 -3 -4 2 -18 11 -32 9 -14 14 -29 11 -35 -3 -5 -2 -11 4 -13 5
-1 11 -12 13 -23 2 -11 9 -31 16 -44 10 -18 10 -22 0 -16 -9 6 -10 4 -3 -6 5
-8 9 -16 10 -19 0 -3 6 -23 12 -45 6 -22 13 -49 14 -60 2 -11 8 -27 13 -35 5
-8 11 -40 12 -70 5 -78 7 -90 13 -90 3 0 5 -19 5 -42 -1 -24 3 -51 7 -60 5
-11 5 -18 -1 -18 -6 0 -6 -11 -1 -29 4 -16 6 -32 2 -35 -3 -3 1 -6 8 -6 9 0 7
-5 -6 -16 -10 -8 -14 -13 -8 -10 15 8 26 -21 12 -30 -7 -5 -8 -2 -3 6 6 9 4
11 -4 5 -9 -5 -9 -11 -3 -17 6 -6 8 -16 6 -23 -3 -7 0 -16 6 -20 8 -5 6 -13
-7 -28 -10 -11 -12 -17 -5 -13 6 4 12 2 12 -3 0 -6 -4 -11 -8 -11 -9 0 -8 -42
2 -58 4 -7 3 -12 -2 -12 -4 0 -8 -25 -7 -56 0 -30 -2 -57 -6 -60 -4 -2 -6 -15
-4 -29 1 -14 -1 -25 -4 -25 -4 0 -6 -18 -6 -41 0 -22 -3 -43 -7 -45 -4 -3 -5
-11 -1 -19 3 -8 1 -15 -3 -15 -5 0 -10 -12 -11 -27 -3 -54 -15 -108 -24 -111
-5 -2 -6 -8 -3 -14 3 -5 -3 -12 -15 -15 -12 -3 -21 -9 -21 -14 0 -4 -9 -6 -20
-4 -22 4 -60 24 -46 25 5 0 3 7 -4 15 -7 9 -10 18 -7 22 4 3 1 13 -6 21 -9 13
-9 14 1 8 6 -4 12 -2 12 3 0 6 -5 11 -11 11 -8 0 -7 6 2 17 12 15 12 16 -1 8
-12 -6 -13 -5 -3 5 9 9 9 19 2 33 -8 15 -8 18 1 12 9 -5 10 -2 3 11 -5 11 -9
58 -9 106 1 50 -3 84 -8 80 -5 -3 -7 2 -3 11 4 10 1 17 -6 17 -8 0 -6 4 3 10
8 5 10 10 4 10 -5 0 -12 19 -13 43 -4 59 -7 79 -16 100 -4 9 -5 26 -2 37 3 11
1 23 -4 26 -5 3 -7 10 -4 15 4 5 1 9 -5 9 -6 0 -8 5 -5 10 3 6 0 10 -7 10 -9
0 -9 3 2 10 9 6 11 10 3 10 -7 0 -10 7 -7 15 4 8 1 21 -5 29 -6 8 -13 28 -14
45 -1 17 -5 31 -9 31 -5 0 -8 9 -8 20 0 11 -5 20 -11 20 -5 0 -8 4 -4 9 3 6
-3 25 -14 44 -11 19 -17 38 -14 41 4 3 1 6 -5 6 -6 0 -9 7 -6 15 4 8 2 15 -3
15 -5 0 -17 23 -27 50 -10 28 -22 50 -27 50 -5 0 -9 6 -9 13 0 18 -24 67 -32
67 -5 0 -8 9 -8 20 0 11 -3 20 -7 20 -5 0 -13 10 -19 23 -23 49 -59 112 -66
115 -5 2 -8 10 -8 18 0 8 -4 14 -10 14 -5 0 -10 7 -10 15 0 8 -4 15 -8 15 -5
0 -15 12 -23 28 -8 15 -16 29 -19 32 -15 15 -60 80 -56 80 4 0 -1 8 -10 18
-69 75 -104 119 -104 130 0 7 -4 10 -10 7 -5 -3 -10 -2 -10 4 0 14 -270 281
-285 281 -3 0 -16 10 -29 23 -13 12 -33 29 -46 37 -45 30 -115 84 -122 94 -4
6 -8 7 -8 3 0 -5 -13 0 -29 9 -17 10 -28 20 -26 24 2 3 -6 7 -18 7 -12 1 -28
10 -35 20 -7 10 -15 17 -17 16 -11 -4 -45 10 -45 18 0 5 -9 9 -20 9 -11 0 -20
4 -20 8 0 10 -80 39 -93 34 -5 -1 -6 2 -3 7 5 8 -39 26 -56 23 -5 -1 -8 2 -8
7 0 5 -8 8 -17 6 -10 -1 -22 0 -28 4 -5 3 -14 6 -20 7 -5 1 -41 9 -78 17 -38
8 -84 14 -103 13 -19 -1 -35 2 -37 7 -1 5 -14 4 -29 -2 -14 -5 -29 -7 -32 -3
-6 6 -68 4 -112 -2 -10 -2 -22 2 -26 8 -5 8 -8 7 -8 -2 0 -7 -4 -10 -10 -7 -5
3 -10 2 -10 -3 0 -5 -10 -8 -22 -7 -13 1 -27 0 -32 -3 -6 -3 -19 -7 -30 -8
-30 -3 -49 -9 -63 -17 -7 -5 -17 -5 -23 -2 -5 3 -10 1 -10 -6 0 -7 -3 -10 -6
-7 -9 9 -144 -48 -156 -66 -4 -6 -8 -7 -8 -3 0 5 -22 -7 -49 -27 -27 -20 -51
-36 -55 -36 -3 0 -21 -16 -41 -35 -19 -20 -35 -32 -35 -28 0 4 -7 -3 -16 -15
-8 -12 -20 -19 -26 -16 -6 4 -8 2 -4 -4 3 -6 -4 -18 -16 -26 -12 -9 -19 -16
-15 -16 6 0 1 -8 -44 -61 -9 -11 -22 -33 -29 -49 -7 -17 -16 -30 -21 -30 -5 0
-9 -5 -9 -10 0 -6 -9 -29 -19 -51 -11 -22 -23 -53 -26 -69 -4 -17 -10 -30 -14
-30 -5 0 -7 -11 -6 -25 2 -14 0 -25 -5 -25 -4 0 -6 -11 -5 -25 2 -14 -1 -25
-6 -25 -4 0 -6 -6 -3 -14 3 -8 1 -17 -5 -21 -8 -4 -8 -12 -1 -25 6 -11 6 -21
1 -24 -10 -7 -7 -97 4 -116 5 -8 4 -11 -2 -7 -6 4 -10 -7 -9 -28 0 -19 5 -35
10 -35 6 0 5 -5 -2 -12 -8 -8 -8 -15 -1 -24 6 -7 11 -31 12 -52 1 -22 6 -37
11 -34 5 3 7 -2 3 -11 -3 -10 -2 -17 2 -17 5 0 8 -11 7 -25 -2 -13 1 -22 5
-19 8 4 11 -10 8 -32 0 -4 4 -10 11 -14 10 -6 17 -24 19 -53 1 -5 6 -5 13 -1
7 5 9 2 5 -8 -3 -9 2 -24 12 -34 9 -11 18 -23 19 -29 2 -5 12 -20 22 -33 11
-12 20 -27 20 -32 0 -6 5 -10 10 -10 6 0 10 -6 10 -13 0 -8 11 -20 25 -27 13
-7 27 -22 31 -32 3 -10 10 -16 15 -13 5 4 9 -2 10 -12 0 -11 3 -13 6 -5 3 8
13 3 31 -16 26 -27 172 -109 172 -96 0 4 6 1 14 -5 11 -9 15 -9 19 1 4 9 6 7
6 -4 1 -9 6 -20 13 -24 7 -4 8 -3 4 4 -9 15 -1 15 25 2 14 -8 19 -7 19 2 0 10
2 10 9 -1 5 -7 15 -11 22 -9 8 3 20 -2 27 -11 8 -9 11 -11 8 -4 -7 14 51 15
60 1 3 -4 11 -5 17 -1 19 12 36 12 43 2 3 -6 12 -5 21 3 20 16 16 16 38 -2 15
-12 17 -12 10 -1 -6 11 -4 13 7 8 9 -3 19 -3 23 1 6 7 17 8 88 15 16 1 27 8
28 17 0 10 2 11 6 3 3 -9 10 -10 22 -3 10 5 21 6 25 3 3 -3 6 1 6 10 0 10 5
14 15 11 8 -4 15 -1 15 5 0 6 6 11 14 11 8 0 24 11 37 25 13 13 28 25 32 25 5
0 16 7 24 16 22 22 6 30 -57 28 -27 -1 -50 2 -50 8 0 5 -4 7 -9 3 -5 -3 -12
-1 -16 4 -3 6 -13 7 -22 4 -10 -4 -14 -2 -10 4 4 6 -4 14 -18 17 -14 4 -25 11
-25 17 0 6 -4 7 -10 4 -5 -3 -10 1 -10 10 0 9 -4 13 -10 10 -5 -3 -10 -2 -10
3 0 5 -9 19 -20 32 -11 12 -17 27 -13 33 3 5 1 7 -4 4 -12 -8 -26 20 -17 34 3
5 0 9 -6 9 -6 0 -8 5 -5 10 3 6 2 10 -4 10 -6 0 -8 30 -6 78 5 94 6 102 17
102 4 0 7 3 6 8 -3 15 22 61 39 71 10 6 14 11 9 11 -14 0 65 60 98 74 59 25
96 35 90 24 -4 -6 2 -6 14 1 12 6 23 7 26 3 3 -5 15 -8 28 -7 13 1 31 -2 41
-7 12 -6 17 -5 17 4 0 9 3 10 8 2 4 -6 24 -19 45 -29 56 -26 124 -95 149 -151
12 -27 21 -52 20 -56 -1 -5 2 -8 7 -8 6 0 10 -8 9 -17 0 -10 6 -42 14 -70 9
-31 11 -53 5 -53 -5 0 -4 -6 2 -14 7 -8 13 -49 14 -90 1 -42 5 -76 9 -76 4 0
4 -10 0 -22 -5 -13 -7 -40 -6 -60 1 -21 -2 -36 -6 -33 -3 2 -7 -2 -7 -10 0 -8
4 -12 8 -10 4 3 1 -14 -6 -38 -8 -28 -10 -49 -4 -60 7 -12 6 -15 -3 -12 -8 3
-14 -2 -15 -12 -2 -47 -11 -83 -23 -97 -7 -9 -10 -16 -6 -16 4 0 0 -13 -8 -29
-9 -16 -12 -31 -9 -35 4 -3 1 -6 -6 -6 -7 0 -10 -4 -6 -9 3 -5 1 -12 -5 -16
-6 -4 -8 -11 -5 -16 4 -5 2 -9 -3 -9 -9 0 -21 -26 -26 -55 -1 -5 -7 -9 -13 -8
-7 2 -10 -6 -8 -17 2 -11 -1 -20 -7 -20 -6 0 -9 -3 -6 -6 4 -3 -2 -14 -13 -25
-11 -11 -17 -24 -14 -29 4 -6 2 -10 -4 -10 -5 0 -20 -17 -32 -37 -13 -21 -29
-42 -36 -46 -7 -4 -13 -15 -13 -22 0 -8 -4 -15 -10 -15 -5 0 -10 -7 -10 -16 0
-8 -4 -12 -10 -9 -5 3 -10 1 -10 -5 0 -15 -191 -200 -207 -200 -8 0 -11 -4 -8
-10 3 -5 -1 -10 -9 -10 -9 0 -16 -5 -16 -11 0 -5 -13 -15 -30 -20 -16 -6 -27
-15 -24 -20 5 -8 -3 -11 -23 -8 -3 0 -10 -6 -15 -15 -5 -9 -13 -14 -17 -12 -4
3 -17 -3 -28 -14 -12 -10 -24 -16 -27 -13 -3 4 -6 1 -6 -5 0 -6 -13 -13 -30
-17 -16 -4 -30 -11 -30 -17 0 -6 -3 -9 -6 -5 -3 3 -25 -5 -48 -17 -24 -13 -50
-22 -59 -20 -10 1 -17 -2 -17 -7 0 -6 -4 -7 -10 -4 -5 3 -10 1 -10 -6 0 -6 -8
-9 -20 -6 -11 3 -20 1 -20 -5 0 -5 -8 -8 -17 -7 -10 1 -25 0 -33 -4 -47 -17
-57 -20 -75 -23 -11 -2 -32 -4 -47 -5 -15 -1 -26 -5 -24 -8 3 -3 -16 -6 -40
-6 -24 1 -44 -3 -44 -7 0 -4 -11 -3 -25 2 -13 5 -26 6 -29 2 -6 -10 -79 -8
-96 3 -8 5 -11 4 -7 -2 8 -12 -51 -11 -70 0 -7 4 -14 4 -17 -1 -3 -5 -24 -7
-48 -5 -24 2 -55 5 -70 6 -16 1 -28 6 -28 12 0 5 -5 3 -10 -5 -6 -9 -10 -10
-10 -3 0 6 -9 10 -20 8 -11 -2 -20 -1 -20 3 0 4 -19 7 -41 8 -23 1 -44 5 -48
10 -3 5 -21 10 -40 11 -19 1 -37 6 -40 10 -3 4 -19 9 -36 11 -16 2 -32 7 -35
11 -3 4 -16 8 -29 8 -13 1 -27 7 -31 14 -4 6 -14 9 -21 7 -8 -3 -20 1 -27 9
-7 7 -22 13 -33 13 -10 0 -19 5 -19 11 0 6 -7 9 -15 5 -8 -3 -15 -1 -15 5 0 6
-4 8 -9 5 -5 -4 -11 -1 -13 4 -2 6 -13 12 -25 13 -12 0 -19 5 -17 9 5 7 -10
11 -21 6 -2 -2 -10 5 -17 14 -7 9 -20 18 -28 20 -8 2 -25 13 -36 25 -12 12
-25 19 -28 16 -3 -4 -6 -1 -6 6 0 7 -4 10 -8 7 -5 -3 -14 4 -22 14 -8 10 -17
17 -22 14 -4 -3 -11 2 -14 10 -3 9 -11 16 -16 16 -13 0 -217 208 -210 214 3 3
-3 8 -12 12 -9 3 -14 10 -11 14 3 4 -2 11 -11 14 -8 3 -12 10 -9 16 3 5 -1 10
-9 10 -9 0 -16 3 -15 8 3 19 -15 52 -29 52 -8 0 -12 3 -9 6 4 4 -2 19 -11 33
-23 33 -94 179 -90 184 2 2 -4 12 -12 22 -13 17 -13 18 0 11 8 -4 6 0 -4 8
-11 9 -16 16 -10 16 5 0 2 5 -6 10 -13 9 -13 10 0 10 11 0 12 2 3 8 -7 4 -14
22 -16 39 -2 18 -8 38 -13 45 -6 7 -10 22 -10 33 1 11 -6 26 -14 33 -8 8 -9
11 -2 7 15 -8 15 0 1 27 -9 16 -8 19 3 12 11 -6 11 -5 -1 9 -7 9 -10 17 -7 17
4 0 2 9 -4 20 -8 15 -8 20 1 20 8 0 8 4 -1 15 -10 12 -10 18 0 30 11 13 10 14
-6 8 -16 -6 -17 -5 -6 9 7 9 9 19 4 22 -11 6 -9 86 2 105 6 9 5 12 -1 8 -14
-9 -12 45 2 55 6 5 4 8 -4 8 -11 0 -10 5 4 20 18 20 18 21 1 14 -16 -6 -17 -4
-8 12 5 10 10 30 11 44 2 50 7 79 13 85 4 4 4 14 1 23 -4 8 -2 13 3 10 5 -4
10 10 11 30 4 54 5 62 14 62 4 0 6 9 4 21 -2 11 3 32 12 45 8 13 12 24 9 24
-4 0 0 10 8 22 9 12 16 28 16 34 0 6 9 32 20 58 12 25 20 48 20 51 0 3 6 13
15 21 8 9 13 20 10 25 -4 5 -2 9 3 9 6 0 15 14 21 30 5 17 15 30 20 30 6 0 10
3 9 8 -4 12 109 182 116 175 3 -4 6 -1 6 6 0 14 81 122 120 160 14 14 24 29
22 34 -1 5 7 11 18 14 11 3 20 10 20 15 0 9 177 188 186 188 2 0 18 13 35 30
17 16 40 32 50 35 11 4 19 13 19 21 0 8 6 14 13 14 7 0 22 8 33 18 10 10 27
21 37 25 9 3 17 11 17 17 0 6 5 8 10 5 5 -3 10 -2 10 3 0 5 14 15 30 22 17 7
30 16 30 21 0 5 6 9 14 9 7 0 19 7 26 15 7 8 21 15 32 15 10 0 16 5 13 10 -3
6 3 10 15 10 12 0 28 7 37 15 8 8 19 12 25 9 6 -4 8 -2 5 3 -7 12 20 26 33 18
4 -3 11 2 14 11 4 9 9 14 13 11 3 -4 20 2 38 13 18 11 35 17 38 13 4 -3 7 -2
7 3 0 5 10 10 22 11 11 1 24 7 28 13 4 6 11 10 16 9 5 -1 23 3 39 10 17 7 38
13 48 14 9 1 17 4 17 7 0 4 6 7 13 8 39 3 57 7 57 12 0 4 6 7 13 7 41 3 67 8
67 14 0 3 6 6 13 6 49 3 77 8 77 16 0 5 9 5 20 2 11 -3 20 -2 20 3 0 5 12 8
27 6 15 -1 31 3 35 9 6 9 8 9 8 -1 0 -9 5 -10 19 -2 26 13 34 13 25 -2 -6 -9
-3 -9 9 0 10 8 45 14 87 15 38 1 70 5 70 10 0 4 8 3 18 -2 13 -7 23 -6 30 1z
m402 -673 c14 -1 33 -6 44 -11 12 -7 16 -7 12 0 -4 6 2 8 14 5 11 -3 18 -8 16
-12 -2 -3 11 -6 30 -5 19 1 34 -1 34 -5 0 -8 9 -10 54 -13 14 -1 22 -6 20 -10
-3 -4 1 -8 8 -9 32 -2 53 -9 63 -22 5 -7 16 -12 24 -9 7 2 17 -1 21 -7 4 -7
17 -13 28 -14 12 -1 22 -6 22 -12 0 -6 10 -12 22 -12 13 -1 24 -7 26 -13 2 -5
11 -10 21 -10 9 0 27 -9 39 -20 12 -11 26 -20 31 -20 5 0 23 -12 40 -26 17
-14 31 -23 31 -20 0 8 17 -8 118 -104 39 -39 72 -73 72 -76 0 -4 19 -25 43
-47 23 -22 36 -37 30 -33 -7 4 -13 3 -13 -3 0 -5 9 -13 21 -16 11 -4 18 -9 15
-12 -3 -3 7 -22 23 -42 27 -36 40 -59 37 -73 0 -4 8 -14 19 -22 11 -9 16 -16
12 -16 -4 0 -2 -10 5 -22 7 -13 11 -26 10 -30 -1 -5 3 -8 8 -8 5 0 9 -3 9 -7
-1 -5 0 -11 1 -15 1 -5 3 -11 5 -15 5 -19 17 -49 26 -67 8 -14 7 -16 -3 -11
-10 6 -11 5 0 -6 6 -7 12 -24 12 -37 0 -13 3 -21 8 -19 4 3 8 -20 10 -51 1
-31 7 -59 13 -63 8 -5 8 -8 0 -14 -7 -4 -8 -11 -3 -18 5 -7 8 -33 8 -59 -1
-27 1 -48 4 -48 3 0 5 -22 5 -50 0 -27 -2 -50 -5 -50 -3 0 -5 -39 -4 -88 0
-48 -4 -95 -9 -106 -6 -13 -6 -16 2 -12 8 5 8 -1 1 -20 -8 -21 -8 -29 2 -36
10 -6 10 -8 -1 -8 -7 0 -11 -6 -7 -15 3 -8 2 -15 -2 -15 -4 0 -8 -12 -9 -27
-2 -60 -8 -113 -14 -113 -3 0 -6 -15 -7 -32 -3 -59 -9 -83 -21 -80 -9 2 -9 -3
-1 -17 7 -13 7 -22 0 -26 -6 -4 -8 -10 -5 -15 3 -5 1 -11 -5 -15 -6 -4 -8 -11
-5 -16 4 -5 3 -15 -2 -21 -8 -14 -8 -15 -18 -62 -3 -16 -12 -44 -20 -63 -8
-20 -12 -39 -9 -44 3 -5 1 -9 -5 -9 -10 0 -37 -76 -33 -92 1 -5 -2 -8 -8 -8
-5 0 -10 -6 -10 -13 0 -7 -9 -29 -20 -50 -11 -20 -18 -37 -15 -37 2 0 -11 -27
-30 -59 -19 -33 -35 -64 -35 -70 0 -6 -4 -11 -10 -11 -5 0 -10 -7 -10 -15 0
-8 -5 -15 -11 -15 -5 0 -8 -4 -5 -8 3 -5 -7 -21 -22 -37 -15 -16 -26 -31 -24
-32 5 -6 -51 -83 -59 -83 -5 0 -8 -3 -7 -7 3 -8 -7 -21 -77 -101 -62 -71 -186
-192 -196 -192 -6 0 -7 -4 -4 -10 3 -5 0 -10 -7 -10 -7 0 -24 -13 -38 -30 -14
-16 -30 -30 -37 -30 -7 0 -13 -5 -13 -12 0 -6 -3 -8 -7 -5 -3 4 -17 -5 -30
-19 -12 -14 -23 -22 -23 -19 0 3 -9 -3 -21 -14 -12 -11 -49 -36 -83 -57 -33
-21 -67 -44 -74 -51 -8 -7 -18 -11 -23 -8 -5 4 -9 2 -9 -2 0 -5 -9 -14 -21
-21 -17 -11 -20 -11 -14 0 3 7 -1 4 -9 -6 -9 -11 -16 -16 -16 -11 0 4 -8 1
-18 -8 -10 -10 -22 -14 -25 -10 -4 3 -7 1 -7 -5 0 -7 -3 -11 -7 -10 -5 1 -22
-6 -40 -15 -18 -9 -38 -17 -46 -17 -8 0 -22 -9 -32 -20 -10 -11 -22 -17 -27
-14 -5 3 -20 -2 -35 -11 -14 -9 -23 -13 -19 -7 3 5 -11 1 -31 -9 -20 -10 -52
-22 -70 -25 -18 -3 -33 -10 -33 -16 0 -5 -4 -6 -10 -3 -5 3 -19 1 -31 -6 -17
-9 -20 -8 -13 3 6 11 5 11 -9 -1 -9 -7 -31 -15 -49 -16 -18 -2 -32 -8 -31 -13
2 -6 -8 -9 -22 -6 -13 2 -26 1 -29 -4 -2 -4 -21 -7 -40 -7 -20 1 -36 -2 -36
-6 0 -5 -6 -6 -14 -3 -8 3 -16 1 -20 -4 -3 -5 -26 -8 -51 -7 -25 1 -45 -2 -45
-7 0 -5 -9 -4 -20 2 -14 7 -20 7 -20 0 0 -5 -5 -10 -11 -10 -5 0 -7 6 -3 13 5
8 2 8 -9 -2 -9 -7 -17 -10 -17 -6 0 4 -7 2 -15 -5 -8 -7 -15 -9 -15 -4 0 5
-16 9 -35 9 -19 0 -35 -2 -35 -5 0 -8 -136 -4 -149 4 -6 4 -11 2 -11 -5 0 -8
-4 -8 -12 -2 -7 5 -28 9 -45 8 -18 0 -33 4 -33 10 0 5 -5 3 -10 -5 -9 -13 -10
-13 -10 0 0 13 -1 13 -10 0 -6 -9 -10 -10 -10 -3 0 8 -14 11 -40 10 -22 -2
-40 0 -40 4 0 4 -7 10 -16 13 -8 3 -12 2 -9 -4 3 -6 1 -10 -4 -10 -6 0 -11 4
-11 9 0 5 -8 8 -17 7 -10 -2 -35 3 -55 10 -20 7 -51 15 -69 18 -17 2 -36 11
-40 18 -5 7 -9 10 -9 5 0 -4 -13 -1 -29 7 -16 9 -31 12 -35 9 -3 -4 -6 -2 -6
4 0 10 -49 38 -62 35 -5 -1 -8 5 -8 13 0 8 -8 15 -18 15 -10 0 -24 9 -32 20
-8 11 -23 20 -33 20 -10 0 -15 5 -12 10 3 6 2 10 -3 10 -5 0 -34 24 -65 54
-32 30 -57 52 -57 50 0 -2 -11 8 -25 22 -14 14 -25 27 -25 30 0 3 -16 20 -35
38 -19 18 -32 36 -28 40 3 3 2 6 -4 6 -13 0 -133 146 -133 163 0 7 -9 19 -20
27 -11 8 -20 20 -20 27 0 7 -4 13 -10 13 -5 0 -10 7 -10 15 0 8 -5 15 -12 15
-6 0 -9 3 -5 6 3 3 1 11 -4 18 -22 26 -76 125 -71 130 3 3 0 6 -7 6 -7 0 -9 5
-6 10 3 6 1 10 -5 10 -7 0 -9 7 -6 16 3 8 2 12 -4 9 -6 -3 -10 -1 -10 4 0 22
-2 26 -17 43 -8 9 -12 22 -8 27 3 6 -1 14 -10 17 -9 4 -14 12 -11 19 2 7 -2
21 -9 32 -8 10 -15 28 -15 41 0 13 -4 20 -10 17 -6 -4 -10 6 -10 24 0 16 -5
33 -11 36 -6 4 -8 13 -5 21 3 8 1 14 -5 14 -6 0 -8 9 -4 21 5 15 4 19 -4 15
-6 -4 -11 0 -12 11 -2 48 -7 66 -20 74 -12 7 -12 9 1 9 10 0 11 3 4 8 -6 4
-10 19 -8 35 1 16 -2 27 -9 27 -14 0 31 43 55 52 18 7 58 -21 58 -41 0 -7 5
-9 10 -6 6 3 10 -1 10 -9 0 -8 10 -26 23 -38 12 -13 36 -42 52 -63 34 -44 195
-209 195 -199 0 3 13 -8 29 -25 16 -17 33 -31 38 -31 4 0 22 -13 39 -30 18
-16 35 -26 38 -23 3 4 6 1 6 -6 0 -7 4 -9 10 -6 6 3 10 -2 10 -11 0 -10 3 -14
6 -11 4 4 21 -4 38 -16 17 -12 37 -20 44 -19 8 2 12 -1 9 -6 -3 -4 10 -14 29
-21 18 -7 34 -17 34 -22 0 -6 4 -8 9 -4 5 3 16 -1 24 -9 8 -8 17 -12 21 -9 3
4 6 2 6 -4 0 -5 6 -10 13 -10 17 -1 41 -7 47 -13 15 -15 52 -30 60 -25 6 4 10
2 10 -3 0 -6 7 -13 16 -16 10 -4 13 -2 8 7 -4 6 3 3 15 -8 13 -11 25 -19 27
-17 11 6 34 1 29 -8 -3 -5 7 -8 25 -5 16 2 30 -1 30 -6 0 -6 5 -7 10 -4 6 4
18 1 26 -6 8 -6 17 -9 21 -6 3 4 12 2 20 -4 7 -6 13 -9 13 -5 0 3 11 1 25 -4
13 -5 42 -10 65 -12 22 -1 40 -6 40 -11 0 -5 6 -4 14 2 9 7 17 8 20 2 3 -5 21
-9 38 -10 48 -1 83 -7 98 -16 9 -5 11 -4 6 3 -9 15 9 15 36 1 15 -8 19 -8 14
0 -9 14 0 14 26 0 16 -9 19 -8 12 3 -6 11 -5 11 9 -1 14 -11 17 -11 17 0 0 11
2 11 10 -1 9 -13 10 -13 10 0 0 12 2 13 9 1 6 -9 14 -10 22 -5 20 12 73 12 81
-1 5 -7 8 -6 8 2 0 6 15 11 33 12 38 0 72 7 89 17 7 5 8 3 3 -6 -6 -10 -4 -11
6 -4 15 9 29 12 72 16 15 1 27 6 27 10 0 4 9 5 20 3 11 -2 22 0 25 5 3 4 13 7
23 6 9 -2 20 1 23 6 3 5 17 10 30 12 13 1 32 6 41 10 9 4 22 9 30 10 7 2 21 6
30 10 15 7 41 13 61 15 5 1 6 5 3 10 -4 5 3 7 14 4 11 -3 20 0 20 6 0 6 6 11
13 11 6 0 37 13 68 30 31 16 59 26 63 23 3 -3 6 1 6 10 0 10 5 14 15 11 8 -4
15 -1 15 5 0 6 7 11 15 11 8 0 15 5 15 11 0 5 5 7 10 4 6 -3 10 -1 10 4 0 6 7
11 15 11 8 0 15 5 15 12 0 6 3 9 6 5 3 -3 14 2 24 11 35 32 50 43 50 36 0 -3
9 4 20 17 10 13 19 21 20 16 0 -4 14 6 31 23 18 16 36 30 41 30 5 0 6 5 3 10
-3 5 -2 10 4 10 14 0 142 135 186 196 11 16 28 36 37 45 9 10 14 20 10 23 -3
3 0 6 7 6 7 0 9 5 6 10 -3 6 1 13 10 16 9 4 14 12 11 19 -3 8 2 16 10 19 8 3
14 12 14 21 0 8 3 15 8 15 4 0 16 20 27 45 11 25 24 45 28 45 5 0 5 5 2 10 -3
6 -1 10 5 10 6 0 9 4 5 9 -3 5 0 13 6 16 5 4 8 13 5 21 -3 8 -1 14 4 14 6 0
10 9 10 20 0 11 4 20 9 20 6 0 8 9 6 20 -2 11 0 18 6 15 5 -4 9 0 10 7 0 7 3
22 6 33 2 11 5 28 6 37 1 9 5 14 10 11 5 -3 7 1 6 8 -2 14 8 61 19 89 6 16 9
33 14 68 1 12 5 22 8 22 12 0 7 30 -4 30 -6 0 -4 5 4 10 10 5 15 23 15 49 0
23 4 41 8 41 5 0 4 6 -2 14 -9 10 -9 16 -1 21 6 4 9 13 6 21 -3 8 -2 14 3 14
4 0 7 10 6 23 -1 12 3 25 9 29 8 6 8 8 0 8 -12 0 -11 61 1 80 3 6 1 10 -6 10
-8 0 -8 4 1 15 10 12 10 15 0 15 -10 0 -10 3 0 15 10 12 10 15 -1 16 -11 0
-11 2 -1 6 10 4 10 8 1 19 -9 11 -9 14 1 14 10 0 10 3 0 15 -10 12 -10 15 1
15 9 0 10 3 4 8 -6 4 -10 31 -10 59 0 29 -4 53 -9 53 -5 0 -3 6 3 14 10 11 9
16 -5 24 -12 7 -13 11 -5 17 8 4 9 11 2 19 -6 7 -11 29 -13 49 -1 20 -6 37
-10 37 -4 0 -8 11 -8 25 0 14 -4 25 -10 25 -5 0 -7 7 -4 15 4 9 0 15 -7 15
-12 0 -12 2 -1 9 11 7 11 9 -2 14 -9 4 -16 16 -16 27 0 11 -4 20 -8 20 -10 0
-38 70 -34 84 2 6 0 8 -4 4 -7 -8 -31 18 -32 35 -2 12 -65 72 -74 69 -4 -1 -7
1 -6 5 3 10 -30 59 -37 56 -14 -8 -25 -1 -25 14 0 9 -3 14 -6 10 -3 -3 -15 3
-27 14 -11 10 -27 19 -34 19 -7 0 -13 5 -13 11 0 5 -4 8 -9 5 -5 -3 -14 1 -21
9 -7 8 -21 15 -31 15 -11 0 -19 5 -19 11 0 5 -4 7 -10 4 -5 -3 -10 -2 -10 4 0
5 -9 8 -20 6 -11 -2 -20 0 -20 4 0 8 -16 11 -57 12 -13 1 -23 5 -23 11 0 5 -9
6 -20 3 -11 -3 -20 -2 -20 2 0 12 -216 8 -232 -4 -7 -5 -25 -8 -40 -7 -16 2
-28 -2 -28 -8 0 -6 -3 -8 -7 -5 -3 4 -12 2 -20 -4 -7 -6 -13 -9 -13 -5 0 4
-14 -1 -30 -9 -17 -9 -36 -13 -42 -9 -6 4 -8 3 -4 -4 3 -6 -4 -14 -16 -18 -13
-4 -26 -12 -30 -18 -4 -6 -11 -11 -15 -11 -20 -1 -53 -27 -47 -37 4 -6 3 -8
-4 -4 -6 3 -32 -16 -59 -44 -66 -69 -84 -90 -77 -90 4 0 -6 -17 -22 -37 -15
-20 -21 -33 -13 -28 9 5 7 1 -4 -12 -9 -11 -14 -23 -10 -26 3 -4 1 -7 -5 -7
-7 0 -11 -3 -10 -7 3 -16 -14 -83 -21 -79 -4 3 -6 -16 -6 -41 1 -24 -5 -56
-12 -70 -11 -21 -11 -24 2 -20 9 4 12 1 8 -9 -3 -7 -10 -14 -16 -14 -6 0 -2
-7 9 -15 13 -10 14 -14 5 -15 -9 0 -10 -4 -5 -12 5 -7 9 -26 9 -43 0 -16 4
-33 10 -37 6 -5 5 -12 -5 -18 -13 -8 -13 -10 2 -10 10 0 15 -7 14 -17 -2 -9 3
-28 11 -42 7 -15 13 -32 13 -39 0 -7 6 -15 14 -18 8 -3 13 -14 11 -25 -2 -12
2 -19 11 -19 8 0 14 -7 14 -16 0 -8 13 -29 30 -47 16 -18 30 -35 30 -39 0 -4
9 -9 20 -13 11 -3 19 -9 17 -13 -3 -9 40 -52 46 -46 3 3 8 0 12 -5 9 -16 -24
-26 -38 -12 -6 6 -18 11 -27 11 -9 0 -26 9 -37 19 -12 11 -24 17 -27 14 -3 -4
-6 -1 -6 6 0 7 -4 10 -8 7 -5 -3 -15 4 -22 15 -8 10 -19 19 -24 19 -11 0 -46
40 -46 53 0 6 -3 7 -6 4 -8 -8 -53 54 -81 110 -11 23 -23 40 -27 36 -3 -3 -6
8 -6 25 0 18 -5 32 -11 32 -5 0 -7 5 -4 10 3 6 2 10 -2 10 -5 0 -8 12 -7 28 0
15 -3 30 -8 33 -5 3 -10 31 -11 63 -1 31 -6 56 -12 56 -7 0 -7 3 0 8 13 9 15
52 2 52 -6 0 -6 4 1 13 5 6 9 24 7 40 -2 15 0 27 5 27 4 0 8 10 8 23 0 12 3
36 7 52 3 17 7 36 7 43 1 6 5 12 10 12 4 0 8 3 7 8 -2 15 14 52 22 52 5 0 8 3
7 8 -4 12 33 80 57 107 13 14 22 25 19 25 -3 0 15 19 40 43 80 74 106 97 106
90 0 -3 8 1 18 9 34 29 95 59 109 54 8 -3 12 -2 9 3 -5 7 17 19 46 25 3 0 9 4
13 8 4 4 13 4 21 1 8 -3 14 -1 14 4 0 5 6 10 13 11 49 4 63 6 72 12 6 4 43 7
82 6 40 0 73 1 73 4 0 3 19 4 42 2 24 -1 54 -3 68 -3z m-34 -344 c45 -1 80 -7
91 -16 15 -12 16 -12 8 1 -7 13 -6 13 7 2 9 -7 22 -12 30 -10 7 2 28 -8 46
-20 17 -13 32 -20 32 -17 0 6 44 -23 84 -55 37 -30 66 -61 66 -71 0 -6 5 -7
10 -4 6 3 10 -1 10 -9 0 -9 4 -16 8 -16 5 0 19 -20 31 -45 12 -25 26 -45 31
-45 5 0 7 -7 4 -15 -4 -8 -1 -15 6 -15 6 0 9 -4 5 -9 -3 -5 2 -17 11 -26 9 -9
14 -19 10 -22 -3 -3 -1 -12 4 -19 11 -12 24 -61 14 -51 -3 3 -5 9 -4 12 1 4
-11 16 -27 26 -15 10 -24 19 -19 19 4 0 -18 25 -50 55 -33 30 -65 55 -71 55
-7 0 -13 5 -13 11 0 5 -4 8 -9 5 -5 -4 -11 -2 -13 4 -2 6 -13 12 -25 14 -12 3
-30 9 -41 15 -11 6 -22 7 -26 4 -3 -3 -6 -2 -6 4 0 6 -8 9 -19 6 -10 -3 -22 0
-26 7 -5 8 -10 8 -21 -1 -8 -6 -14 -7 -14 -2 0 10 -123 4 -137 -8 -2 -1 -6 -2
-11 -3 -22 -3 -102 -41 -102 -48 0 -4 -6 -8 -12 -8 -16 0 -97 -90 -98 -107 0
-7 -4 -13 -10 -13 -5 0 -10 -6 -10 -12 0 -7 -7 -26 -15 -42 -8 -15 -13 -32
-10 -36 3 -5 0 -12 -6 -15 -5 -4 -8 -13 -5 -21 3 -8 2 -14 -2 -14 -4 0 -7 -12
-6 -27 1 -16 -3 -34 -9 -40 -6 -8 -6 -13 0 -13 6 0 9 -17 8 -37 -1 -21 2 -44
8 -50 6 -9 5 -13 -3 -13 -9 0 -10 -3 -1 -13 6 -8 8 -17 4 -20 -3 -4 -2 -7 4
-7 6 0 13 -9 16 -19 2 -11 0 -18 -7 -17 -20 3 -96 51 -96 60 0 5 -10 18 -22
30 -35 32 -78 103 -78 126 0 12 -4 19 -8 16 -4 -2 -9 9 -10 27 -2 17 -8 37
-14 44 -8 10 -7 13 2 13 10 0 10 3 0 15 -6 8 -10 20 -7 27 2 7 0 21 -5 32 -7
12 -7 16 0 12 5 -3 12 3 15 14 3 11 1 20 -5 20 -5 0 -6 6 -1 13 4 6 8 18 10
26 1 8 5 26 8 40 4 14 5 26 3 26 -2 0 7 11 19 24 12 13 20 28 17 33 -3 4 0 8
7 8 7 0 10 3 6 6 -6 7 75 90 112 114 12 8 27 14 32 13 5 -2 9 3 9 10 0 7 10
13 22 14 11 1 24 7 28 14 4 6 13 8 19 5 6 -4 11 -3 11 2 0 5 6 9 13 10 21 3
62 10 67 12 3 1 13 1 24 0 12 -1 16 2 11 11 -6 8 -4 10 5 4 7 -4 46 -9 86 -10z
m1330 -694 c-3 -5 1 -14 10 -21 8 -7 13 -19 10 -27 -3 -7 -1 -13 4 -13 5 0 14
-16 21 -35 7 -19 17 -35 22 -35 4 0 6 -4 2 -9 -3 -6 3 -14 12 -20 14 -8 15
-10 3 -11 -13 0 -13 -1 0 -10 8 -5 11 -10 6 -10 -5 0 -2 -8 6 -17 8 -10 21
-39 29 -65 7 -27 16 -48 20 -48 3 0 6 -7 7 -15 1 -8 3 -22 4 -30 1 -8 5 -15
10 -15 5 0 7 -4 3 -9 -3 -5 -1 -12 5 -16 6 -4 7 -11 4 -17 -4 -6 -1 -13 5 -17
6 -4 12 -26 14 -48 1 -23 5 -39 10 -36 4 2 7 -3 7 -11 0 -19 0 -20 17 -75 7
-24 10 -47 7 -52 -3 -5 -1 -9 3 -9 5 0 9 -8 10 -17 1 -19 7 -64 18 -122 4 -23
2 -37 -7 -42 -10 -7 -9 -9 2 -9 16 0 16 -1 24 -225 1 -44 0 -84 -2 -89 -4 -7
-9 -77 -13 -169 0 -9 -4 -15 -9 -12 -5 3 -5 -8 0 -25 5 -16 5 -30 1 -30 -3 0
-8 -12 -9 -27 -1 -15 -6 -31 -11 -36 -5 -5 -7 -15 -5 -21 3 -7 -2 -31 -11 -55
-8 -24 -12 -47 -9 -52 3 -5 0 -9 -5 -9 -6 0 -10 -3 -10 -7 1 -5 0 -10 -1 -13
-3 -10 -11 -45 -12 -57 -1 -7 -5 -13 -10 -13 -5 0 -7 -4 -3 -9 3 -5 -2 -17
-11 -25 -9 -9 -13 -23 -10 -31 3 -8 1 -15 -5 -15 -6 0 -7 -4 -4 -10 3 -5 1
-10 -4 -10 -6 0 -11 -9 -11 -20 0 -11 -4 -20 -10 -20 -5 0 -10 -9 -10 -19 0
-11 -7 -27 -16 -35 -8 -9 -12 -20 -9 -26 3 -5 2 -10 -3 -10 -5 0 -15 -13 -22
-30 -7 -16 -15 -28 -19 -26 -4 3 -8 -5 -8 -17 -1 -12 -9 -27 -18 -33 -8 -6
-15 -16 -15 -23 0 -6 -5 -11 -12 -11 -6 0 -8 -3 -5 -6 6 -7 -47 -81 -68 -96
-5 -4 -6 -8 -2 -8 4 0 -2 -11 -15 -24 -13 -13 -33 -37 -45 -52 -82 -108 -342
-324 -389 -324 -8 0 -14 -4 -14 -10 0 -5 -7 -10 -15 -10 -8 0 -15 -5 -15 -11
0 -5 -4 -7 -10 -4 -5 3 -10 1 -10 -4 0 -6 -3 -11 -7 -10 -16 2 -53 -14 -53
-22 0 -5 -3 -8 -7 -7 -17 3 -63 -15 -63 -25 0 -6 -3 -8 -6 -4 -3 3 -27 -4 -52
-15 -47 -20 -76 -29 -99 -30 -7 -1 -13 -4 -13 -8 0 -6 -7 -8 -49 -12 -11 -1
-18 -5 -15 -9 6 -10 -15 -15 -53 -15 -17 1 -29 -2 -26 -6 2 -5 1 -8 -4 -9 -53
-6 -98 -15 -98 -20 0 -2 -25 -6 -67 -10 -16 -2 -28 -6 -28 -9 0 -3 -19 -6 -43
-8 -56 -3 -69 -6 -86 -16 -10 -6 -12 -5 -7 2 4 7 3 12 -3 12 -5 0 -12 -4 -15
-8 -6 -10 -284 -20 -331 -12 -5 1 -36 2 -67 2 -32 0 -60 4 -64 9 -3 5 -13 5
-25 -1 -10 -6 -19 -7 -19 -3 0 4 -24 9 -52 11 -29 1 -57 7 -62 12 -6 6 -15 5
-25 -3 -11 -9 -13 -9 -8 0 5 7 1 12 -10 12 -53 2 -73 6 -73 13 0 4 -14 8 -30
8 -23 0 -35 7 -49 31 -37 61 7 98 122 102 15 0 27 4 27 9 0 5 9 4 19 -2 14 -7
20 -7 23 1 2 6 27 12 56 12 28 1 52 6 52 11 0 4 7 6 15 2 8 -3 15 -2 15 2 0 7
27 13 73 15 9 1 17 5 17 9 0 4 14 8 30 8 17 0 30 4 30 8 0 5 6 9 13 9 32 1 72
14 75 23 2 5 8 7 13 4 6 -3 17 0 26 8 14 11 16 11 8 -2 -7 -13 -6 -13 7 -2 9
7 26 15 39 17 12 3 25 8 28 13 3 4 13 7 21 7 8 0 21 5 28 12 8 7 18 11 23 7 5
-3 12 1 15 9 3 9 17 14 34 13 16 -1 26 2 23 7 -3 4 4 11 16 14 12 3 21 10 21
15 0 5 5 6 10 3 6 -4 17 -1 25 5 8 7 15 9 15 4 0 -4 6 0 13 11 8 10 19 15 24
12 6 -4 13 0 17 8 3 8 12 15 21 15 8 0 15 4 15 10 0 5 7 6 17 3 11 -4 14 -3 9
5 -4 7 -2 12 6 12 7 0 37 16 65 35 29 19 56 35 62 35 5 0 12 7 15 16 3 8 10
13 14 10 5 -3 20 6 35 20 14 13 29 24 31 24 7 0 54 39 74 62 9 9 19 15 24 12
4 -3 11 2 14 10 3 9 13 16 22 16 8 0 13 3 9 6 -7 7 46 54 62 54 6 0 10 3 9 8
-1 4 48 59 109 121 62 63 110 119 107 123 -3 4 3 8 12 8 10 0 14 3 11 7 -4 3
4 16 18 28 13 13 21 26 18 29 -3 3 2 8 11 12 9 3 16 12 16 18 0 7 8 21 18 32
28 32 62 82 62 92 0 5 9 17 20 27 11 10 17 21 15 26 -3 4 0 11 6 15 6 3 17 22
25 40 8 19 19 34 24 34 5 0 7 7 4 15 -4 8 -1 15 5 15 6 0 11 5 11 10 0 6 18
47 41 93 22 45 40 83 40 84 0 2 2 10 4 18 3 8 7 22 10 30 2 8 3 17 2 19 -1 2
7 14 18 27 11 12 15 19 8 15 -8 -4 -8 2 2 20 8 15 12 31 9 36 -3 4 0 8 6 8 6
0 8 5 5 10 -3 6 -2 10 2 10 5 0 9 8 10 18 1 9 4 31 8 47 4 17 8 35 9 40 1 6 5
16 9 23 5 6 5 17 2 22 -3 6 -2 10 2 10 8 0 12 19 14 73 0 9 3 16 7 13 4 -2 8
10 8 27 2 39 20 179 24 185 5 6 3 71 -3 85 -3 9 -2 19 3 22 6 4 7 18 4 32 -5
20 -4 24 6 18 9 -6 11 -4 5 6 -13 21 -15 120 -3 113 7 -5 8 -2 2 7 -4 8 -9 30
-10 50 -1 20 -4 41 -8 47 -3 6 -2 14 4 17 7 4 7 12 2 18 -4 7 -8 19 -7 27 0 8
-4 18 -10 22 -6 5 -5 8 4 8 9 0 10 4 4 13 -6 6 -9 22 -8 35 1 12 -3 22 -8 22
-5 0 -4 7 3 15 13 16 25 21 16 6z"/>
</g>
</svg>
